<svg width="84" height="84" viewBox="0 0 84 84" fill="none" xmlns="http://www.w3.org/2000/svg">
<g clip-path="url(#clip0_12_2)">
<path d="M82.4061 26.2016L44.0155 0.60789C42.7051 -0.198477 41.3067 -0.20586 39.9843 0.60789L1.5937 26.2016C0.609328 26.8577 0 28.0298 0 29.2015V54.7951C0 55.967 0.609328 57.1389 1.59387 57.7952L39.9845 83.3925C41.2949 84.1989 42.6933 84.2063 44.0157 83.3925L82.4063 57.7952C83.3907 57.1391 84.0002 55.967 84.0002 54.7951V29.2015C84 28.0298 83.3907 26.8577 82.4061 26.2016V26.2016ZM45.6094 10.3576L73.875 29.2015L61.2657 37.6391L45.6094 27.1859V10.3576ZM38.3906 10.3576V27.1859L22.7343 37.6391L10.125 29.2015L38.3906 10.3576ZM7.21875 35.9515L16.2656 41.9984L7.21875 48.0453V35.9515ZM38.3906 73.6392L10.125 54.7953L22.7343 46.3577L38.3906 56.8109V73.6392ZM42 50.5297L29.2499 41.9984L42 33.4671L54.7501 41.9984L42 50.5297ZM45.6094 73.6392V56.8109L61.2657 46.3577L73.875 54.7953L45.6094 73.6392ZM76.7812 48.0453L67.7344 41.9984L76.7812 35.9515V48.0453Z" fill="white"/>
</g>
<defs>
<clipPath id="clip0_12_2">
<rect width="84" height="84" fill="white"/>
</clipPath>
</defs>
</svg>
