<svg width="469" height="249" viewBox="0 0 469 249" fill="none" xmlns="http://www.w3.org/2000/svg">
<path d="M276 120H174L183 222L225 234L267 222L276 120Z" fill="#0277BD"/>
<path d="M225 129V224.7L258.6 215.1L266.1 129H225Z" fill="#039BE5"/>
<path d="M252.3 144H225V156H239.7L238.8 168H225V180H238.2L237.3 193.5L225 197.7V210.3L248.7 202.5L250.8 168L252.3 144Z" fill="white"/>
<path d="M225 144V156H198.3L197.4 144H225ZM211.2 168L211.8 180H225V168H211.2ZM212.4 186H200.4L201.3 202.5L225 210.3V197.7L212.7 193.5L212.4 186Z" fill="#EEEEEE"/>
<path d="M123 72H21L30 174L72 186L114 174L123 72Z" fill="#E65100"/>
<path d="M72 81V176.7L105.6 167.1L113.1 81H72Z" fill="#FF6D00"/>
<path d="M72 132V120H97.8L95.7 154.5L72 162.3V149.7L84.3 145.5L85.2 132H72ZM98.7 108L99.6 96H72V108H98.7Z" fill="white"/>
<path d="M72 149.7V162.3L48.3 154.5L47.1 138H59.1L59.7 145.5L72 149.7ZM57.3 108H72V96H44.7L46.8 132H72V120H58.2L57.3 108Z" fill="#EEEEEE"/>
<path fill-rule="evenodd" clip-rule="evenodd" d="M165.126 12.096C198.195 12.096 225 38.901 225 71.97C225 105.036 198.195 131.844 165.126 131.844C132.06 131.844 105.252 105.039 105.252 71.97C105.255 38.901 132.06 12.096 165.126 12.096Z" fill="#F06292"/>
<path fill-rule="evenodd" clip-rule="evenodd" d="M202.683 37.722C199.971 27.087 182.34 23.592 165.654 29.52C155.724 33.048 144.972 38.586 137.241 45.816C128.049 54.414 126.585 61.896 127.188 65.022C129.318 76.053 144.435 83.265 150.648 88.617V88.65C148.815 89.553 135.405 96.339 132.267 103.278C128.955 110.598 132.795 115.851 135.336 116.559C143.211 118.749 151.29 114.81 155.634 108.333C159.825 102.081 159.477 94.011 157.656 89.994C160.167 89.331 163.098 89.034 166.818 89.469C177.321 90.696 179.382 97.254 178.986 99.999C178.593 102.744 176.388 104.253 175.653 104.709C174.915 105.165 174.693 105.324 174.753 105.66C174.843 106.152 175.182 106.134 175.812 106.029C176.676 105.882 181.326 103.797 181.527 98.73C181.779 92.298 175.617 85.104 164.703 85.29C160.209 85.368 157.383 85.794 155.34 86.556C155.19 86.385 155.034 86.214 154.878 86.043C148.131 78.843 135.657 73.752 136.185 64.074C136.377 60.555 137.601 51.291 160.152 40.053C178.626 30.846 193.416 33.381 195.972 38.994C199.623 47.016 188.067 61.923 168.882 64.074C161.571 64.893 157.722 62.061 156.765 61.005C155.757 59.895 155.607 59.844 155.232 60.054C154.62 60.393 155.007 61.374 155.232 61.959C155.805 63.45 158.157 66.093 162.162 67.41C165.687 68.568 174.27 69.201 184.65 65.187C196.272 60.687 205.35 48.177 202.683 37.722ZM153.228 91.914C154.098 95.136 154.002 98.142 153.105 100.863C153.006 101.166 152.895 101.463 152.775 101.76C152.655 102.054 152.526 102.348 152.388 102.636C151.695 104.076 150.762 105.423 149.622 106.668C146.142 110.463 141.282 111.897 139.2 110.688C136.95 109.383 138.078 104.034 142.11 99.768C146.448 95.181 152.691 92.232 152.691 92.232L152.682 92.214C152.862 92.115 153.045 92.016 153.228 91.914Z" fill="white"/>
<path d="M255 138V30H363V138H255Z" fill="#FFD600"/>
<path d="M325.614 110.841C327.69 114.213 329.946 117.444 334.725 117.444C338.739 117.444 340.845 115.449 340.845 112.689C340.845 109.386 338.667 108.213 334.251 106.29L331.83 105.258C324.843 102.294 320.196 98.58 320.196 90.735C320.196 83.505 325.731 78.003 334.38 78.003C340.539 78.003 344.964 80.136 348.156 85.722L340.614 90.543C338.955 87.579 337.161 86.412 334.38 86.412C331.542 86.412 329.745 88.203 329.745 90.543C329.745 93.435 331.545 94.605 335.7 96.396L338.121 97.428C346.356 100.935 351 104.517 351 112.569C351 121.245 344.148 126 334.95 126C325.953 126 320.844 121.485 318 115.896L325.614 110.841ZM290.856 111.087C292.374 113.805 294.681 115.896 297.999 115.896C301.173 115.896 303 114.642 303 109.767V78H312.999V111.303C312.999 121.404 307.14 126 298.584 126C290.853 126 285.273 120.762 282.999 115.896L290.856 111.087Z" fill="#000001"/>
<path d="M451.6 138.3L402.7 89.4C401.2 87.9 399.1 87 397 87C394.9 87 392.8 87.9 391.3 89.4L380.8 99.9L393.1 112.2C394.3 111.6 395.5 111.3 397 111.3C402.1 111.3 406 115.2 406 120.3C406 121.8 405.7 123 405.1 124.2L417.1 136.2C418.3 135.6 419.5 135.3 421 135.3C426.1 135.3 430 139.2 430 144.3C430 149.4 426.1 153.3 421 153.3C415.9 153.3 412 149.4 412 144.3C412 142.8 412.3 141.6 412.9 140.4L400.9 128.4C400.6 128.4 400.3 128.7 400 128.7V159.9C403.6 161.1 406 164.4 406 168.3C406 173.4 402.1 177.3 397 177.3C391.9 177.3 388 173.4 388 168.3C388 164.4 390.4 161.1 394 159.9V128.4C390.4 127.2 388 123.9 388 120C388 118.5 388.3 117.3 388.9 116.1L376.6 103.8L342.4 138.3C340.9 139.8 340 141.9 340 144C340 146.1 340.9 148.2 342.4 149.7L391.3 198.6C392.8 200.1 394.9 201 397 201C399.1 201 401.2 200.1 402.7 198.6L451.6 149.7C453.1 148.2 454 146.1 454 144C454 141.9 453.1 139.8 451.6 138.3Z" fill="#F4511E"/>
</svg>
