<svg width="560" height="583" viewBox="0 0 560 583" fill="none" xmlns="http://www.w3.org/2000/svg">
<path fill-rule="evenodd" clip-rule="evenodd" d="M262.758 198.19C261.298 198.242 260.202 198.542 259.446 199.049C259.015 199.336 258.702 199.7 258.493 200.143C258.272 200.625 258.167 201.224 258.18 201.901C258.233 203.893 259.289 206.497 261.311 209.492L261.337 209.531L267.897 219.948C270.532 224.128 273.284 228.385 276.714 231.51C280.014 234.518 284.005 236.549 289.3 236.562C295.026 236.575 299.213 234.466 302.617 231.289C306.151 227.982 308.942 223.45 311.694 218.932L319.09 206.784C320.472 203.646 320.968 201.549 320.655 200.312C320.472 199.583 319.663 199.219 318.281 199.154C317.994 199.141 317.681 199.141 317.381 199.141C317.055 199.154 316.703 199.167 316.351 199.206C316.155 199.219 315.959 199.206 315.777 199.167C315.125 199.206 314.446 199.154 313.755 199.062L316.285 187.878C297.504 190.833 283.457 176.914 263.606 185.091L265.041 198.268C264.206 198.32 263.45 198.294 262.758 198.19ZM310.781 286.432V292.721L297.83 300.052V292.721L306.164 289.557L297.83 286.432V279.102L310.781 286.432ZM288.348 302.122H282.831L289.639 275.638H295.156L288.348 302.122ZM279.14 286.432L270.806 289.557L279.14 292.721V300.052L266.189 292.721V286.432L279.14 279.102V286.432ZM320.772 195.833C321.046 184.414 323.146 172.878 315.007 163.516C309.203 156.836 294.1 150.547 284.305 150.013C280.17 149.792 281.748 153.151 277.666 154.557C269.241 157.461 261.871 163.633 259.459 172.2C259.067 173.607 258.793 175.026 258.65 176.445C258.376 182.409 258.533 189.518 258.963 195.169C258.376 195.391 257.841 195.664 257.372 195.977C256.354 196.654 255.611 197.539 255.115 198.594C254.646 199.596 254.437 200.742 254.476 202.005C254.555 204.687 255.794 207.943 258.193 211.523L264.754 221.94C267.049 225.586 269.449 229.297 272.371 232.435C272.227 232.852 272.384 232.396 272.293 232.669C271.484 235.117 270.127 239.206 268.914 241.497C260.945 246.706 242.699 248.047 235.617 251.992C216.287 262.747 223.265 284.922 223.031 303.242C223.409 307.331 225.73 309.674 230.295 310.026H235.238L229.826 269.01C229.408 265.82 231.678 263.203 234.469 263.203H259.863H289.835C288.805 256.562 271.601 250.156 270.988 245.156C271.158 245.039 271.314 244.883 271.445 244.7C272.906 242.669 274.418 238.437 275.462 235.352C279.153 238.333 283.587 240.286 289.287 240.299C294.4 240.312 298.482 238.893 301.912 236.588C302.251 237.07 302.591 237.578 302.956 238.112C304.586 240.508 306.49 243.281 308.264 245.26C307.886 250.95 292.965 251.016 291.27 263.203H344.405C347.196 263.203 349.479 265.82 349.048 269.01L343.636 310.026H348.579C353.144 309.674 355.465 307.331 355.857 303.242C354.565 285.937 361.061 261.888 343.271 251.992C336.28 248.099 318.411 246.745 310.286 241.706C308.916 240.013 307.442 237.852 306.138 235.95C305.721 235.325 305.316 234.74 304.938 234.206L305.134 234.036C309.034 230.391 311.968 225.638 314.851 220.898L322.324 208.607C322.363 208.542 322.402 208.463 322.441 208.398C324.189 204.427 324.763 201.51 324.241 199.453C323.759 197.539 322.598 196.393 320.772 195.833Z" fill="#F3F3F3"/>
<path fill-rule="evenodd" clip-rule="evenodd" d="M93.9937 48.2331C93.9937 48.2331 93.3294 43.6571 91.3366 41.6643C88.8272 39.0072 85.9856 39.0072 84.694 38.8596C75.4311 38.1953 61.4815 38.1953 61.4815 38.1953H61.4446C61.4446 38.1953 47.532 38.1953 38.2322 38.8596C36.9406 39.0072 34.099 39.0441 31.5896 41.6643C29.5968 43.6571 28.9694 48.2331 28.9694 48.2331C28.9694 48.2331 28.3051 53.5842 28.3051 58.9721V63.991C28.3051 69.342 28.9694 74.73 28.9694 74.73C28.9694 74.73 29.6337 79.306 31.5896 81.2988C34.099 83.9559 37.4203 83.8452 38.8965 84.1404C44.2106 84.6571 61.4446 84.8047 61.4446 84.8047C61.4446 84.8047 75.3942 84.7678 84.6571 84.1035C85.9487 83.9559 88.7903 83.919 91.2997 81.2988C93.2925 79.306 93.9568 74.73 93.9568 74.73C93.9568 74.73 94.6211 69.3789 94.6211 63.991V58.9721C94.6211 53.6211 93.9568 48.2331 93.9568 48.2331H93.9937ZM61.5185 0C78.4941 0 93.883 6.90099 105.028 18.009C116.173 29.1539 123.037 44.5059 123.037 61.5185C123.037 78.4941 116.136 93.883 105.028 105.028C93.883 116.173 78.5311 123.037 61.5185 123.037C44.5428 123.037 29.1539 116.136 18.009 105.028C6.86409 93.883 0 78.5311 0 61.5185C0 44.5428 6.90099 29.1539 18.009 18.009C29.1539 6.86409 44.5059 0 61.5185 0ZM101.854 21.1458C91.5212 10.8128 77.2763 4.42844 61.5185 4.42844C45.7606 4.42844 31.4788 10.8128 21.1827 21.1458C10.8497 31.4788 4.46535 45.7237 4.46535 61.4815C4.46535 77.2394 10.8497 91.5212 21.1827 101.817C31.5158 112.15 45.7606 118.535 61.5185 118.535C77.2763 118.535 91.5581 112.15 101.854 101.817C112.187 91.4842 118.572 77.2394 118.572 61.4815C118.572 45.7237 112.187 31.4419 101.854 21.1458ZM54.6175 70.117V51.4806L72.5527 60.8173L54.6175 70.117Z" fill="#F3F3F3"/>
<path fill-rule="evenodd" clip-rule="evenodd" d="M527.735 80.4385C528.377 80.4225 529.007 80.6195 529.527 80.999C530.225 81.4495 531.011 82.3303 531.987 82.8809C533.361 83.6716 535.901 82.5906 537.195 84.5325C537.76 85.3894 538.055 86.3974 538.042 87.4253C538.081 88.5594 538.502 89.6465 539.237 90.5083C540.83 92.6304 541.159 94.0417 540.342 95.5132C539.775 96.5142 538.599 97.0747 538.351 97.7053C537.773 99.0566 538.41 100.068 537.624 101.649C537.372 102.167 537.016 102.628 536.579 103.001C536.142 103.375 535.633 103.654 535.084 103.821C534.088 104.132 533.162 103.681 532.395 104.011C531.051 104.582 530.065 105.903 528.99 106.244C528.59 106.371 528.174 106.435 527.755 106.434C527.336 106.434 526.92 106.37 526.52 106.244C525.445 105.913 524.459 104.582 523.114 104.011C522.347 103.691 521.391 104.132 520.425 103.821C519.876 103.657 519.367 103.379 518.931 103.005C518.496 102.631 518.143 102.169 517.896 101.649C517.099 100.068 517.737 99.0566 517.159 97.7053C516.89 97.0647 515.715 96.5042 515.167 95.5132C514.341 94.0417 514.67 92.6304 516.273 90.5083C517.003 89.6441 517.424 88.5585 517.468 87.4253C517.452 86.3971 517.747 85.3883 518.314 84.5325C519.609 82.5906 522.158 83.6816 523.523 82.8809C524.518 82.3303 525.285 81.4395 525.982 80.999C526.504 80.6234 527.133 80.4269 527.775 80.4385H527.735ZM465.565 123.03C461.641 123.09 458.196 122.92 455.477 121.639C452.041 120.017 450 116.954 450 111.148V105.853H465.037V13.4431C464.818 8.12793 466.103 4.82471 468.463 2.7627C470.823 0.700684 474.01 0.120117 477.774 0.0400391C477.953 -0.0500488 552.282 0.0400391 560 0.0400391V110.298C560 114.762 558.905 117.925 556.654 120.037C554.403 122.149 551.217 123.04 546.915 123.04L465.565 123.03ZM483.908 23.573C483.346 23.573 482.806 23.3484 482.408 22.9485C482.011 22.5487 481.787 22.0064 481.787 21.4409C481.787 20.8755 482.011 20.3332 482.408 19.9333C482.806 19.5335 483.346 19.3088 483.908 19.3088H522.596C523.159 19.3088 523.698 19.5335 524.096 19.9333C524.494 20.3332 524.718 20.8755 524.718 21.4409C524.718 22.0064 524.494 22.5487 524.096 22.9485C523.698 23.3484 523.159 23.573 522.596 23.573H483.908ZM483.908 38.0972C483.346 38.0972 482.806 37.8725 482.408 37.4727C482.011 37.0729 481.787 36.5306 481.787 35.9651C481.787 35.3996 482.011 34.8573 482.408 34.4575C482.806 34.0576 483.346 33.833 483.908 33.833H540.77C541.333 33.833 541.872 34.0576 542.27 34.4575C542.668 34.8573 542.892 35.3996 542.892 35.9651C542.892 36.5306 542.668 37.0729 542.27 37.4727C541.872 37.8725 541.333 38.0972 540.77 38.0972H483.908ZM483.908 81.6396C483.348 81.6396 482.811 81.4161 482.415 81.0181C482.019 80.6201 481.797 80.0804 481.797 79.5176C481.797 78.9548 482.019 78.415 482.415 78.017C482.811 77.6191 483.348 77.3955 483.908 77.3955H503.536C504.096 77.3955 504.633 77.6191 505.029 78.017C505.425 78.415 505.647 78.9548 505.647 79.5176C505.647 80.0804 505.425 80.6201 505.029 81.0181C504.633 81.4161 504.096 81.6396 503.536 81.6396H483.908ZM483.908 67.1355C483.346 67.1355 482.806 66.9109 482.408 66.511C482.011 66.1112 481.787 65.5689 481.787 65.0034C481.787 64.438 482.011 63.8957 482.408 63.4958C482.806 63.096 483.346 62.8713 483.908 62.8713H540.77C541.333 62.8713 541.872 63.096 542.27 63.4958C542.668 63.8957 542.892 64.438 542.892 65.0034C542.892 65.5689 542.668 66.1112 542.27 66.511C541.872 66.9109 541.333 67.1355 540.77 67.1355H483.908ZM483.908 52.5813C483.354 52.5813 482.822 52.3598 482.429 51.9656C482.037 51.5714 481.817 51.0367 481.817 50.4792C481.817 49.9217 482.037 49.3871 482.429 48.9929C482.822 48.5987 483.354 48.3772 483.908 48.3772H541.099C541.654 48.3772 542.186 48.5987 542.578 48.9929C542.97 49.3871 543.19 49.9217 543.19 50.4792C543.19 51.0367 542.97 51.5714 542.578 51.9656C542.186 52.3598 541.654 52.5813 541.099 52.5813H483.908ZM482.863 96.9446C487.782 90.4482 491.974 93.3911 497.8 97.4951L498.666 98.1057C500.27 99.2268 502.132 97.5752 503.895 96.0037C504.71 95.2406 505.582 94.5413 506.504 93.9116L508.316 96.7844C507.55 97.3169 506.825 97.9058 506.145 98.5462C503.397 100.979 500.519 103.551 496.745 100.898L495.858 100.278C491.566 97.2749 488.489 95.1028 485.531 99.0066L482.863 96.9446ZM465.037 110.147H454.242V111.148C454.242 114.982 455.378 116.894 457.23 117.785C459.082 118.676 461.821 118.786 465.007 118.786V110.147H465.037ZM555.768 110.328V4.34424H477.794C474.976 4.34424 472.665 4.73462 471.231 5.97583C469.797 7.21704 469.1 9.44922 469.24 13.343V118.766H546.915C550.121 118.766 552.402 118.205 553.766 116.914C555.13 115.623 555.758 113.511 555.758 110.298L555.768 110.328ZM527.735 85.6436C529.268 85.6416 530.767 86.0966 532.042 86.9511C533.317 87.8056 534.312 89.0212 534.9 90.444C535.488 91.8669 535.643 93.433 535.345 94.9443C535.047 96.4556 534.31 97.8441 533.227 98.9343C532.144 100.024 530.763 100.767 529.26 101.068C527.757 101.37 526.199 101.216 524.782 100.627C523.366 100.038 522.155 99.0396 521.304 97.7588C520.452 96.4779 519.997 94.9718 519.997 93.4312C519.997 91.3675 520.812 89.3882 522.263 87.928C523.714 86.4678 525.682 85.6462 527.735 85.6436Z" fill="#F3F3F3"/>
<path fill-rule="evenodd" clip-rule="evenodd" d="M227.548 460H349.452C354.709 460 359 464.298 359 469.563V573.437C359 578.689 354.709 583 349.452 583H227.548C222.293 583 218 578.7 218 573.437V469.563C218 464.298 222.293 460 227.548 460ZM237.178 491.931H339.822C342.419 491.931 344.539 494.066 344.539 496.656V546.865C344.539 549.455 342.405 551.59 339.822 551.59H237.178C234.592 551.59 232.458 549.461 232.458 546.865V496.656C232.458 494.061 234.581 491.931 237.178 491.931ZM288.497 499.506C300.769 499.506 310.716 509.469 310.716 521.761C310.716 534.052 300.769 544.015 288.497 544.015C276.229 544.015 266.281 534.052 266.281 521.761C266.281 509.469 276.229 499.506 288.497 499.506ZM287.25 509.53V503.779C285.278 505.536 283.397 507.447 281.767 509.53H287.25ZM305.654 531.479C307.127 528.83 307.992 526.044 308.157 523.002H302.721C302.57 526.006 301.65 528.844 300.215 531.476L305.654 531.479ZM304.002 533.991H298.665C296.811 536.662 294.493 539.039 292.05 541.172C296.789 540.303 301 537.768 304.002 533.991ZM284.958 541.166C282.513 539.045 280.2 536.653 278.346 533.991H273.023C276.061 537.815 280.233 540.292 284.958 541.166ZM271.343 531.49H276.782C275.356 528.869 274.425 526.009 274.276 523.013H268.843C269.03 526.1 269.853 528.8 271.343 531.49ZM268.837 520.511H274.328C274.593 517.502 275.623 514.658 277.091 512.035H271.343C269.864 514.694 269.002 517.488 268.837 520.511ZM272.998 509.53H278.674C280.53 506.882 282.775 504.485 285.154 502.306C280.31 503.15 276.066 505.685 272.998 509.53ZM291.863 502.322C294.245 504.496 296.481 506.882 298.323 509.53H303.988C300.945 505.712 296.676 503.15 291.863 502.322ZM305.651 512.035H299.907C301.372 514.65 302.404 517.51 302.669 520.511H308.155C307.951 517.43 307.163 514.716 305.651 512.035ZM289.748 503.779V509.53H295.231C293.6 507.447 291.722 505.536 289.748 503.779ZM289.748 512.035V520.511H300.166C299.849 517.46 298.632 514.605 297.001 512.035H289.748ZM289.748 523.013V531.49H297.329C298.946 528.902 300.036 526.08 300.221 523.013H289.748ZM289.748 533.991V539.85C291.849 538.077 293.84 536.146 295.553 533.991H289.748ZM287.25 539.85V533.991H281.442C283.144 536.146 285.148 538.088 287.25 539.85ZM287.25 531.49V523.013H276.777C276.964 526.08 278.057 528.897 279.668 531.49H287.25ZM287.25 520.511V512.035H279.993C278.363 514.605 277.148 517.46 276.832 520.511H287.25ZM353.366 483.102H224.07V574.369C224.068 574.716 224.135 575.061 224.267 575.382C224.399 575.704 224.593 575.996 224.838 576.242C225.084 576.487 225.375 576.682 225.696 576.814C226.017 576.946 226.361 577.013 226.708 577.012H350.68C352.148 577.012 353.321 575.828 353.321 574.366V483.102H353.366ZM340.364 468.297C342.97 468.297 345.082 470.413 345.082 473.022C345.082 475.632 342.97 477.745 340.364 477.745C337.762 477.745 335.65 475.632 335.65 473.022C335.65 470.413 337.773 468.297 340.364 468.297ZM308.419 468.297C311.024 468.297 313.136 470.413 313.136 473.022C313.136 475.632 311.024 477.745 308.419 477.745C305.814 477.745 303.704 475.632 303.704 473.022C303.704 470.413 305.814 468.297 308.419 468.297ZM324.392 468.297C326.997 468.297 329.109 470.413 329.109 473.022C329.109 475.632 326.997 477.745 324.392 477.745C321.789 477.745 319.677 475.632 319.677 473.022C319.677 470.413 321.789 468.297 324.392 468.297ZM294.732 567.837C292.689 567.837 291.036 566.033 291.036 563.815C291.036 561.587 292.689 559.794 294.732 559.794H340.227C342.27 559.794 343.922 561.598 343.922 563.815C343.922 566.033 342.27 567.837 340.227 567.837H294.732ZM235.165 567.837C233.146 567.837 231.505 566.033 231.505 563.815C231.505 561.587 233.146 559.794 235.165 559.794H277.347C279.365 559.794 281.007 561.598 281.007 563.815C281.007 566.033 279.365 567.837 277.347 567.837H235.165Z" fill="#F3F3F3"/>
<line x1="289" y1="453" x2="289" y2="325" stroke="#F3F3F3" stroke-width="4"/>
<line x1="111.243" y1="105.433" x2="232.243" y2="201.433" stroke="#F3F3F3" stroke-width="4"/>
<line x1="450.212" y1="123.591" x2="348.719" y2="200.872" stroke="#F3F3F3" stroke-width="4"/>
<circle cx="237.5" cy="205.5" r="7" stroke="#4461C8" stroke-width="3"/>
<circle cx="105.5" cy="101.5" r="7" stroke="#4461C8" stroke-width="3"/>
<circle cx="288.5" cy="318.5" r="7" stroke="#4461C8" stroke-width="3"/>
<circle cx="288.5" cy="459.5" r="7" stroke="#4461C8" stroke-width="3"/>
<circle cx="455.031" cy="119.328" r="7" transform="rotate(105 455.031 119.328)" stroke="#4461C8" stroke-width="3"/>
<circle cx="343.41" cy="204.913" r="7" transform="rotate(105 343.41 204.913)" stroke="#4461C8" stroke-width="3"/>
</svg>
